<svg viewBox="-0.5 -0.5 16 16" fill="none" xmlns="http://www.w3.org/2000/svg" id="Comment-Question--Streamline-Unicons.svg" height="16" width="16"><desc>Comment Question Streamline Icon: https://streamlinehq.com</desc><path d="M10.416812499999999 2.3705000000000003c0.177625 0.1008125 0.388 0.12737500000000002 0.585125 0.07375s0.36506249999999996 -0.1830625 0.46712499999999996 -0.36006249999999995c0.0844375 -0.149 0.21600000000000003 -0.2658125 0.374 -0.3320625 0.15793749999999998 -0.06625 0.3334375 -0.0781875 0.49893750000000003 -0.0339375 0.16549999999999998 0.04425 0.311625 0.1421875 0.41543749999999996 0.2784375 0.1039375 0.13625 0.15956250000000002 0.303125 0.15837500000000002 0.4744375 0 0.2051875 -0.08149999999999999 0.4019375 -0.2265625 0.5470625 -0.145125 0.145125 -0.3419375 0.226625 -0.547125 0.226625 -0.2051875 0 -0.402 0.08149999999999999 -0.5470625 0.2265625 -0.1450625 0.145125 -0.226625 0.3419375 -0.226625 0.547125s0.08156250000000001 0.4019375 0.226625 0.5470625c0.1450625 0.1450625 0.34187500000000004 0.226625 0.5470625 0.226625 0.40737500000000004 -0.0003125 0.8075 -0.10775 1.160125 -0.311625 0.35275 -0.203875 0.6455 -0.497 0.8490625 -0.8498749999999999 0.20350000000000001 -0.352875 0.3105625 -0.753125 0.3104375 -1.1605 -0.00018749999999999998 -0.40737500000000004 -0.1075625 -0.8075 -0.31137499999999996 -1.16025 -0.20375000000000001 -0.35275 -0.496875 -0.6455624999999999 -0.849625 -0.8491875 -0.352875 -0.203625 -0.753125 -0.31074999999999997 -1.1605 -0.3106875 -0.40731249999999997 0.0000625 -0.8075625 0.10731249999999999 -1.16025 0.31106249999999996 -0.3528125 0.20368750000000002 -0.6457499999999999 0.49668749999999995 -0.8494375 0.8494375 -0.051125 0.0883125 -0.0843125 0.185875 -0.097625 0.2870625 -0.0133125 0.10118749999999999 -0.0064375000000000005 0.20400000000000001 0.0201875 0.3025s0.0724375 0.1908125 0.134875 0.2715625c0.0624375 0.0806875 0.1401875 0.1483125 0.22881249999999997 0.198875Zm3.3268750000000002 5.5163125c-0.203125 -0.026375000000000003 -0.408375 0.028874999999999998 -0.57075 0.15362499999999998 -0.1625 0.1246875 -0.2688125 0.30874999999999997 -0.2958125 0.5117499999999999 -0.1623125 1.3115625 -0.798625 2.5184374999999997 -1.7890625 3.3933750000000003 -0.990375 0.875 -2.2664999999999997 1.357625 -3.588 1.3570625H3.1751249999999995l0.5029375 -0.502875c0.1440625 -0.14500000000000002 0.2249375 -0.3410625 0.2249375 -0.5454375 0 -0.2044375 -0.08087499999999999 -0.4005 -0.2249375 -0.5455 -0.7544375000000001 -0.7573125 -1.2678125000000002 -1.7209374999999998 -1.4754999999999998 -2.7695625 -0.20775 -1.0485625 -0.1005 -2.1351875000000002 0.308125 -3.1229375 0.40868750000000004 -0.98775 1.1005 -1.8324375000000002 1.988375 -2.42775 0.8878750000000001 -0.5953125 1.9320000000000002 -0.9145625000000001 3.001 -0.9175 0.205125 0 0.402 -0.08149999999999999 0.5470625 -0.226625 0.1450625 -0.1450625 0.226625 -0.34187500000000004 0.226625 -0.5470625s-0.08156250000000001 -0.402 -0.226625 -0.5470625c-0.1450625 -0.145125 -0.3419375 -0.226625 -0.5470625 -0.226625 -1.308125 0.0054375 -2.5882500000000004 0.3793125 -3.69375 1.0786875 -1.1055 0.699375 -1.991625 1.696 -2.5568125000000004 2.8756874999999997C0.68425 6.0577499999999995 0.46275 7.372875 0.6104375 8.6726875c0.147625 1.2996874999999999 0.6583749999999999 2.531625 1.4738125 3.5545L0.76125 13.527000000000001c-0.107375 0.10874999999999999 -0.18006250000000001 0.2469375 -0.209 0.3970625 -0.0289375 0.15006250000000002 -0.012750000000000001 0.305375 0.0465 0.44625 0.058062499999999996 0.14125000000000001 0.156625 0.2621875 0.28331249999999997 0.347625 0.126625 0.08531250000000001 0.27575 0.1313125 0.4285 0.1320625h6.1895c1.6955 0.00025 3.33275 -0.6181875 4.6048125 -1.7391875 1.272 -1.1210625 2.0913125 -2.667625 2.3041875000000003 -4.3496875 0.014124999999999999 -0.10112499999999999 0.008125 -0.204125 -0.017750000000000002 -0.3029375 -0.025812500000000002 -0.098875 -0.0709375 -0.1915625 -0.1328125 -0.272875 -0.06193749999999999 -0.08125 -0.13918750000000002 -0.1494375 -0.2275625 -0.2006875 -0.088375 -0.0511875 -0.186 -0.08449999999999999 -0.28725 -0.0978125Zm-1.3075625 -2.2668749999999998c-0.140875 -0.0623125 -0.2970625 -0.0811875 -0.4486875 -0.054125l-0.1393125 0.046375 -0.13924999999999998 0.06962499999999999 -0.1160625 0.100625c-0.0695625 0.07125000000000001 -0.12475 0.1553125 -0.1624375 0.24756250000000002 -0.04575 0.0965 -0.067 0.2028125 -0.06193749999999999 0.3095 -0.0021875 0.1031875 0.0161875 0.20575 0.0541875 0.3016875 0.04 0.09287500000000001 0.09787499999999999 0.177 0.1701875 0.24762499999999998 0.0723125 0.0716875 0.1580625 0.12843749999999998 0.2523125 0.16693750000000002 0.09425 0.0384375 0.1951875 0.058062499999999996 0.297 0.057437499999999996 0.2051875 0 0.4020625 -0.08156250000000001 0.547125 -0.226625s0.2265625 -0.3419375 0.2265625 -0.5470625c0.0026249999999999997 -0.1015625 -0.0185625 -0.20218750000000002 -0.061875 -0.294 -0.083125 -0.18593749999999998 -0.231875 -0.334625 -0.4178125 -0.4178125v-0.00775Z" fill="#000000" stroke-width="1"></path></svg>