<svg viewBox="0 0 48 48" xmlns="http://www.w3.org/2000/svg" id="Study-Book--Streamline-Ultimate.svg" height="48" width="48"><desc>Study Book Streamline Icon: https://streamlinehq.com</desc><path d="M21.898 40.428c-2.43 -2.884 -8.844 -5.7 -18.93 -6.026a2 2 0 0 1 -1.968 -2V4.022a2 2 0 0 1 2.036 -2C16.116 2.458 23 7.088 23 10.6c0 -3.502 7.728 -8.108 19.956 -8.576a2 2 0 0 1 2.044 2v25.962" fill="none" stroke="#000000" stroke-linecap="round" stroke-linejoin="round" stroke-width="1"></path><path d="m23 10.602 0 22.384" fill="none" stroke="#000000" stroke-linecap="round" stroke-linejoin="round" stroke-width="1"></path><path d="M18 11.986a49.528 49.528 0 0 0 -11.028 -2.564" fill="none" stroke="#000000" stroke-linecap="round" stroke-linejoin="round" stroke-width="1"></path><path d="M29 20.986a49.522 49.522 0 0 1 11.03 -2.564" fill="none" stroke="#000000" stroke-linecap="round" stroke-linejoin="round" stroke-width="1"></path><path d="M18 20.986a49.528 49.528 0 0 0 -11.028 -2.564" fill="none" stroke="#000000" stroke-linecap="round" stroke-linejoin="round" stroke-width="1"></path><path d="M18 28.986A49.886 49.886 0 0 0 6.87 26.4" fill="none" stroke="#000000" stroke-linecap="round" stroke-linejoin="round" stroke-width="1"></path><path d="M29 11.986A49.788 49.788 0 0 1 40.134 9.4" fill="none" stroke="#000000" stroke-linecap="round" stroke-linejoin="round" stroke-width="1"></path><path d="M47 45.986v-2.2a5.776 5.776 0 0 0 -5.494 -5.8H37v-9.5a2.5 2.5 0 0 0 -5 0v14.5l-3.042 -4.278a2.1 2.1 0 1 0 -3.716 1.956l2.8 5.322" fill="none" stroke="#000000" stroke-linecap="round" stroke-linejoin="round" stroke-width="1"></path></svg>